# xmcd CD database file
#
# Track frame offsets:
#	150
#	22122
#	52547
#
# Disc length: 990 seconds
#
# Revision: 0
# Processed by: cddbd v1.5PL3 Copyright (c) Steve Scherf et al.
# Submitted via: CDex 1.40Release
#
DISCID=1803dc03
DTITLE=ORIGINAL LOVE - プライマル
DYEAR=1900
DGENRE=Japanese Pop
TTITLE0=プライマル
TTITLE1=Your Song
TTITLE2=プライマル（カラオケ）
EXTD=
EXTT0=
EXTT1=
EXTT2=
PLAYORDER=
